<?xml version="1.0" encoding="utf-8"?>
<!-- Generator: Adobe Illustrator 24.2.1, SVG Export Plug-In . SVG Version: 6.00 Build 0)  -->
<svg version="1.1" id="Layer_1" xmlns="http://www.w3.org/2000/svg" xmlns:xlink="http://www.w3.org/1999/xlink" x="0px" y="0px"
	 viewBox="0 0 448.8 139.9" style="enable-background:new 0 0 448.8 139.9;" xml:space="preserve">
<style type="text/css">
	.st0{fill:#FFFFFF;}
	.st1{fill:#010101;}
	.st2{fill:#F99B1C;}
	.st3{fill:#A04B23;}
	.st4{opacity:0.2;fill:#4D4D4D;enable-background:new    ;}
</style>
<g>
	<path class="st0" d="M92.2,34.7v9.6c0,0.5-0.4,0.9-0.9,0.9h-7.1c-0.5,0-0.9-0.4-0.9-0.9v-9.8c0-2.6,2.2-4.7,4.9-4.4
		C90.6,30.3,92.2,32.4,92.2,34.7z"/>
	<path class="st0" d="M63.6,34.7v9.6c0,0.5-0.4,0.9-0.9,0.9h-7.1c-0.5,0-0.9-0.4-0.9-0.9v-9.8c0-2.6,2.2-4.7,4.9-4.4
		C61.9,30.3,63.6,32.4,63.6,34.7z"/>
	<path class="st1" d="M59.4,35.8c-1.4,0-2.5,1.1-2.5,2.5s1.1,2.5,2.5,2.5s2.5-1.1,2.5-2.5C61.9,36.9,60.7,35.8,59.4,35.8z"/>
	<path class="st1" d="M87.8,40.8c1.4,0,2.5-1.1,2.5-2.5s-1.1-2.5-2.5-2.5s-2.5,1.1-2.5,2.5S86.4,40.8,87.8,40.8z"/>
	<path class="st2" d="M106.2,12c3.7,3.7,4.6,9,2.9,13.6c-0.3,0.7-1.2,0.7-1.6,0.1c-3.5-6.3-8.8-11.5-15.1-15
		c-0.7-0.4-0.6-1.3,0.1-1.6c1.4-0.5,2.9-0.8,4.5-0.8C100.6,8.3,103.8,9.6,106.2,12z"/>
	<path class="st2" d="M54.7,9.1c0.7,0.3,0.8,1.2,0.1,1.6c-2.7,1.5-5.2,3.3-7.5,5.5c-3.1,2.9-5.6,6.2-7.6,9.8
		c-0.4,0.6-1.3,0.6-1.6-0.1c-1.9-4.6-0.9-10.1,2.8-13.9c2.4-2.4,5.7-3.8,9.1-3.8C51.6,8.3,53.2,8.6,54.7,9.1z"/>
	<circle class="st2" cx="16.6" cy="58.1" r="2.9"/>
	<path class="st3" d="M41.4,77.6c0,0.8-0.9,1.3-1.5,0.7L36,74.4c-0.6-0.6-0.2-1.5,0.6-1.5h3.5c0.5,0,0.8,0.3,0.9,0.8
		C41.2,75,41.3,76.3,41.4,77.6z"/>
	<path class="st3" d="M37.2,81.9c0.6,0.6,0.2,1.5-0.6,1.5h-9.4c-3.1,0-5.6-2.7-5.2-5.9c0.3-2.6,2.7-4.5,5.4-4.5H28
		c0.2,0,0.5,0.1,0.6,0.3L37.2,81.9z"/>
	<circle class="st2" cx="132.7" cy="77.8" r="2.9"/>
	<path class="st3" d="M107.3,82.2l8.4,8.4c0.3,0.3,0.3,0.9,0,1.2l-6.2,6.2c-0.3,0.3-0.9,0.3-1.3,0l-0.1-0.1
		c-0.1-0.1-0.2-0.3-0.2-0.5c-0.1-0.7-0.2-1.3-0.4-2c-1-4.1-1.5-8.4-1.6-12.6C105.8,82.1,106.8,81.7,107.3,82.2z"/>
	<path class="st3" d="M113,100.8l5.5-5.5c0.5-0.5,1.3-0.3,1.5,0.3c0.2,0.5,0.3,1.1,0.3,1.7c0,1.4-0.5,2.7-1.5,3.7s-2.3,1.5-3.7,1.5
		c-0.6,0-1.1-0.1-1.7-0.3C112.7,102,112.5,101.2,113,100.8z"/>
	<path class="st3" d="M66.1,123.3c2.9,0,5.2,2.3,5.2,5.2s-2.3,5.2-5.2,5.2H55.7c-2.9,0-5.2-2.3-5.2-5.2c0-2.9,2.3-5.2,5.2-5.2H66.1z
		"/>
	<path class="st3" d="M91.4,123.3c2.9,0,5.2,2.3,5.2,5.2s-2.3,5.2-5.2,5.2H81c-2.9,0-5.2-2.3-5.2-5.2c0-2.9,2.3-5.2,5.2-5.2H91.4z"
		/>
	<path class="st2" d="M85.7,95.6v10.9c0,6.8-5.5,12.3-12.3,12.3s-12.3-5.5-12.3-12.3V95.6c0-6.8,5.5-12.3,12.3-12.3
		C80.2,83.3,85.7,88.8,85.7,95.6z"/>
	<path class="st2" d="M85.5,52.2c2.9,3.2,4.5,7.6,4,12.3c-0.7,7.4-6.7,13.4-14.1,14.3c-9.6,1.1-17.8-6.5-17.8-15.9
		c0-4.1,1.5-7.8,4-10.6c0.3-0.4,0.9-0.4,1.3-0.1l2.5,2.5c1.5,1.5,3.3,2.5,5.3,3c0.4,0.1,0.7,0.4,0.7,0.9v8.8c0,0.2-0.1,0.5-0.3,0.6
		l-3.3,3.3c-0.3,0.3-0.3,0.9,0,1.3l1.9,1.9c0.3,0.3,0.9,0.3,1.3,0l2.1-2.1c0.3-0.3,0.9-0.3,1.3,0l2.1,2.1c0.3,0.3,0.9,0.3,1.3,0
		l1.9-1.9c0.3-0.3,0.3-0.9,0-1.3L76.1,68c-0.2-0.2-0.3-0.4-0.3-0.6v-8.8c0-0.4,0.3-0.8,0.7-0.9c1.9-0.5,3.7-1.5,5.3-3l2.5-2.5
		C84.6,51.9,85.2,51.9,85.5,52.2z"/>
	<path class="st3" d="M108,42.6c0.3,4.9-0.4,9.6-2.1,14.1c-4.8,12.8-5.7,26.6-2.7,39.8c0.5,2.3,0.8,4.6,0.8,6.9
		c0,6.3-1.9,12.3-5.4,17.3c-0.3,0.4-0.9,0.5-1.3,0.2c-1.6-1.2-3.7-2-5.9-2h-4.6c-0.7,0-1.2-0.9-0.7-1.4c2.5-2.9,4-6.7,4-10.8V95.6
		c0-5.5-2.7-10.3-6.7-13.4c-0.5-0.4-0.5-1.2,0.1-1.5C89.8,77.2,94,70.5,94,62.9c0-4.4-1.4-8.4-3.7-11.8c-0.4-0.6,0-1.4,0.7-1.4h4.8
		c0.5,0,0.9-0.4,0.9-0.9V34.5c0-2.6-1.1-5-2.9-6.6c-0.5-0.4-0.3-1.2,0.3-1.5l1.6-0.6c0.5-0.2,0.7-0.7,0.5-1.2l-1-2.5
		c-0.2-0.5-0.7-0.7-1.2-0.5l-16.7,6.9c-0.5,0.2-0.7,0.7-0.5,1.2c0,0,2.3,2.6,2.3,4.7s0,7.5,0,7.5c0,0.6-0.5,1-1,0.9
		c-1.4-0.3-2.8-0.5-4.3-0.5s-3,0.2-4.4,0.5c-0.6,0.1-1.1-0.3-1.1-0.9v-7.5c0-1.9,2.3-4.7,2.3-4.7c0.2-0.5,0-1-0.5-1.2l-16.7-6.9
		c-0.5-0.2-1,0-1.2,0.5l-1,2.5c-0.2,0.5,0,1,0.5,1.2l1.6,0.6c0.6,0.2,0.7,1,0.3,1.5c-1.8,1.6-2.9,4-2.9,6.6v14.3
		c0,0.5,0.4,0.9,0.9,0.9h5c0.7,0,1.1,0.8,0.7,1.4c-2.4,3.3-3.7,7.4-3.7,11.8c0,7.6,4.2,14.2,10.3,17.8c0.6,0.3,0.6,1.1,0.1,1.5
		c-4.2,3-6.9,8-6.9,13.5v10.9c0,4.1,1.5,7.9,4,10.8c0.5,0.6,0.1,1.4-0.7,1.4h-4.3c-2.2,0-4.2,0.7-5.8,2c-0.4,0.3-1,0.2-1.3-0.2
		c-3.2-4.5-5.1-10-5.4-15.8c-0.2-3,0.2-6.1,0.9-9c3.1-12.3,2.2-26-2.7-39.6c-1.6-4.5-2.3-9.2-1.9-14.1c0.6-8,3.9-15.6,9.5-21.4
		c6.6-6.8,15.4-10.5,24.7-10.5c0.8,0,1.7,0,2.5,0.1C93.3,11.6,107,25.4,108,42.6z"/>
	<path class="st1" d="M69.9,28.7c0.5,0.2,0.7,0.7,0.5,1.2c0,0-2.3,2.8-2.3,4.7v7.5c0,0.6,0.5,1,1.1,0.9c1.4-0.3,2.9-0.5,4.4-0.5
		s2.9,0.2,4.3,0.5c0.5,0.1,1-0.3,1-0.9c0,0,0-5.4,0-7.5s-2.3-4.7-2.3-4.7c-0.2-0.5,0-1,0.5-1.2l16.7-6.9c0.5-0.2,1,0,1.2,0.5l1,2.5
		c0.2,0.5,0,1-0.5,1.2L94,26.5c-0.6,0.2-0.7,1-0.3,1.5c1.8,1.6,2.9,4,2.9,6.6v14.3c0,0.5-0.4,0.9-0.9,0.9H91c-0.7,0-1.1,0.8-0.7,1.4
		C92.7,54.5,94,58.6,94,63c0,7.7-4.3,14.4-10.5,17.9c-0.6,0.3-0.6,1.1-0.1,1.5c4.1,3.1,6.7,7.9,6.7,13.4v10.9c0,4.1-1.5,7.9-4,10.8
		c-0.5,0.6-0.1,1.4,0.7,1.4h4.6c2.2,0,4.2,0.7,5.9,2c0.4,0.3,1,0.2,1.3-0.2c3.5-5,5.4-11,5.4-17.3c0-2.3-0.3-4.7-0.8-6.9
		c-3.1-13.2-2.2-26.9,2.7-39.8c1.7-4.5,2.4-9.2,2.1-14.1c-1-17.2-14.6-31-31.8-32.2c-0.8-0.1-1.7-0.1-2.5-0.1
		c-9.3,0-18.1,3.7-24.7,10.5c-5.6,5.8-8.9,13.4-9.5,21.4c-0.3,4.8,0.3,9.6,1.9,14.1c4.9,13.6,5.8,27.3,2.7,39.6c-0.7,2.9-1,6-0.9,9
		c0.3,5.9,2.2,11.3,5.4,15.8c0.3,0.4,0.9,0.5,1.3,0.2c1.6-1.2,3.6-2,5.8-2H60c0.7,0,1.2-0.9,0.7-1.4c-2.5-2.9-4-6.7-4-10.8V95.6
		c0-5.5,2.7-10.4,6.9-13.5c0.5-0.4,0.5-1.2-0.1-1.5c-6.2-3.5-10.3-10.2-10.3-17.8c0-4.4,1.4-8.4,3.7-11.8c0.4-0.6,0-1.4-0.7-1.4h-5
		c-0.5,0-0.9-0.4-0.9-0.9V34.5c0-2.6,1.1-5,2.9-6.6c0.5-0.4,0.3-1.2-0.3-1.5l-1.6-0.6c-0.5-0.2-0.7-0.7-0.5-1.2l1-2.5
		c0.2-0.5,0.7-0.7,1.2-0.5L69.9,28.7z M132,70.6c4.6-0.5,8.5,3.4,8,8c-0.3,3.2-2.8,5.8-5.9,6.4c-1.5,0.3-2.9,0.1-4.1-0.4
		c-0.3-0.1-0.7-0.1-0.9,0.2l-6,6c-0.3,0.3-0.3,0.7-0.1,1.1c2.6,3.8,2.2,9-1.1,12.3c-1.9,1.9-4.4,2.8-6.8,2.8c-1.8,0-3.7-0.5-5.3-1.6
		c-0.1-0.1-0.3-0.2-0.5-0.2c-0.5,0-0.9,0.4-0.9,0.9c-0.5,6.9-3.1,13.4-7.4,18.9c-0.2,0.2-0.2,0.5-0.2,0.8c0.5,1.5,0.6,3.2,0.1,5
		c-1.1,4.4-5.2,7.4-9.7,7.4H56c-4.5,0-8.6-3-9.7-7.4c-0.4-1.8-0.3-3.5,0.1-5c0.1-0.3,0-0.6-0.2-0.8c-4.4-5.5-7.2-12.4-7.5-19.9
		c-0.2-3.5,0.2-7,1-10.3c0.5-1.9,0.9-3.9,1.1-5.9c0.1-0.5-0.4-1-0.9-1H27.5c-5.3,0-9.8-4.1-10-9.4c-0.1-4,2.2-7.4,5.5-9
		c0.6-0.3,0.7-1,0.3-1.4c-0.9-0.9-2.3-2.3-3-3c-0.2-0.2-0.6-0.3-0.9-0.2c-1.2,0.5-2.7,0.7-4.1,0.4c-3.1-0.6-5.6-3.2-5.9-6.4
		c-0.5-4.6,3.4-8.5,8-8c3.2,0.3,5.8,2.8,6.4,5.9c0.3,1.5,0.1,2.9-0.4,4.1c-0.1,0.3-0.1,0.7,0.2,0.9l6.4,6.4c0.2,0.2,0.4,0.3,0.6,0.3
		h8.7c0.6,0,1-0.5,0.9-1.1c-0.7-3.2-1.6-6.5-2.8-9.7c-1.5-4.2-2.3-8.6-2.3-13.1c0-4,0.6-8,1.8-11.7c0.1-0.3,0-0.6-0.2-0.8
		c-6.3-7.7-4.9-19.6,4.1-25.5c1.8-1.2,3.8-2,5.8-2.4c5.2-1,10.3,0.3,14.2,3.4c0.2,0.2,0.5,0.2,0.8,0.2c4.7-1.5,9.7-2.2,14.9-1.8
		c3.2,0.2,6.2,0.8,9.1,1.8c0.3,0.1,0.6,0,0.8-0.2c3.9-3.1,9-4.4,14.2-3.4c2.1,0.4,4,1.2,5.8,2.3c9,5.8,10.4,17.6,4.4,25.3
		c-0.2,0.2-0.2,0.5-0.2,0.8c1,3.1,1.6,6.3,1.8,9.7c0.3,5.5-0.5,10.8-2.4,15.9c-2,5.3-3.3,10.7-3.8,16.2c0,0.2,0.1,0.5,0.2,0.7
		l12.4,12.4c0.3,0.3,0.9,0.3,1.2,0l5.8-5.9c0.2-0.2,0.3-0.6,0.2-0.9c-0.5-1.2-0.7-2.7-0.4-4.1C126.1,73.4,128.8,70.9,132,70.6z
		 M135.6,77.8c0-1.6-1.3-2.9-2.9-2.9s-2.9,1.3-2.9,2.9s1.3,2.9,2.9,2.9S135.6,79.4,135.6,77.8z M120.2,97.3c0-0.6-0.1-1.1-0.3-1.7
		c-0.2-0.6-1-0.8-1.5-0.3l-5.5,5.5c-0.5,0.5-0.3,1.3,0.3,1.5c0.5,0.2,1.1,0.3,1.7,0.3c1.4,0,2.7-0.6,3.7-1.5
		C119.7,100,120.2,98.7,120.2,97.3z M115.7,91.8c0.3-0.3,0.3-0.9,0-1.2l-8.4-8.4c-0.5-0.5-1.5-0.1-1.4,0.6c0.1,4.2,0.7,8.4,1.6,12.6
		c0.2,0.6,0.3,1.3,0.4,2c0,0.2,0.1,0.3,0.2,0.5l0.1,0.1c0.3,0.3,0.9,0.3,1.3,0L115.7,91.8z M109.1,25.6c1.7-4.6,0.7-9.9-2.9-13.6
		c-2.4-2.4-5.7-3.8-9.1-3.8c-1.6,0-3.1,0.3-4.5,0.8c-0.7,0.3-0.8,1.2-0.1,1.6c6.3,3.5,11.5,8.7,15.1,15
		C107.9,26.4,108.9,26.3,109.1,25.6z M96.7,128.5c0-2.9-2.3-5.2-5.2-5.2H81c-2.9,0-5.2,2.3-5.2,5.2s2.3,5.2,5.2,5.2h10.4
		C94.3,133.8,96.7,131.4,96.7,128.5z M92.2,44.4v-9.6c0-2.3-1.7-4.4-4-4.6c-2.6-0.3-4.9,1.8-4.9,4.4v9.8c0,0.5,0.4,0.9,0.9,0.9h7.1
		C91.8,45.3,92.2,44.9,92.2,44.4z M89.5,64.5c0.5-4.7-1.1-9.1-4-12.3c-0.3-0.4-0.9-0.4-1.3,0l-2.5,2.5c-1.5,1.5-3.3,2.5-5.3,3
		c-0.4,0.1-0.7,0.4-0.7,0.9v8.8c0,0.2,0.1,0.5,0.3,0.6l3.3,3.3c0.3,0.3,0.3,0.9,0,1.3l-1.9,1.9c-0.3,0.3-0.9,0.3-1.3,0L74,72.4
		c-0.3-0.3-0.9-0.3-1.3,0l-2.1,2.1c-0.3,0.3-0.9,0.3-1.3,0l-1.9-1.9c-0.3-0.3-0.3-0.9,0-1.3l3.3-3.3c0.2-0.2,0.3-0.4,0.3-0.6v-8.8
		c0-0.4-0.3-0.8-0.7-0.9c-1.9-0.5-3.7-1.5-5.3-3l-2.5-2.5c-0.4-0.4-1-0.3-1.3,0.1c-2.5,2.8-4,6.5-4,10.6c0,9.4,8.2,17,17.8,15.9
		C82.8,77.9,88.7,71.9,89.5,64.5z M85.7,106.5V95.6c0-6.8-5.5-12.3-12.3-12.3s-12.3,5.5-12.3,12.3v10.9c0,6.8,5.5,12.3,12.3,12.3
		S85.7,113.3,85.7,106.5z M71.4,128.5c0-2.9-2.3-5.2-5.2-5.2H55.7c-2.9,0-5.2,2.3-5.2,5.2s2.3,5.2,5.2,5.2h10.4
		C69,133.8,71.4,131.4,71.4,128.5z M63.6,44.4v-9.6c0-2.3-1.7-4.4-4-4.6c-2.6-0.3-4.9,1.8-4.9,4.4v9.8c0,0.5,0.4,0.9,0.9,0.9h7.1
		C63.2,45.3,63.6,44.9,63.6,44.4z M54.8,10.7c0.7-0.4,0.6-1.3-0.1-1.6c-1.5-0.6-3-0.9-4.6-0.9c-3.4,0-6.7,1.3-9.1,3.8
		c-3.7,3.7-4.7,9.2-2.8,13.9c0.3,0.7,1.2,0.7,1.6,0.1c2-3.6,4.5-6.9,7.6-9.8C49.6,14.1,52.1,12.2,54.8,10.7z M39.8,78.3
		c0.6,0.6,1.6,0.1,1.5-0.7c-0.1-1.3-0.2-2.6-0.3-3.9c-0.1-0.5-0.4-0.8-0.9-0.8h-3.5c-0.8,0-1.2,1-0.6,1.5L39.8,78.3z M36.6,83.4
		c0.8,0,1.2-1,0.6-1.5l-8.7-8.7c-0.2-0.2-0.4-0.3-0.6-0.3h-0.6c-2.7,0-5,1.9-5.4,4.5c-0.4,3.2,2.1,5.9,5.2,5.9L36.6,83.4L36.6,83.4z
		 M19.4,58.1c0-1.6-1.3-2.9-2.9-2.9s-2.9,1.3-2.9,2.9s1.4,2.9,3,2.9C18.1,61,19.4,59.7,19.4,58.1z"/>
	<path class="st4" d="M102.4,93.7c-4,12.1-15.5,20.9-29,20.9s-25-8.8-29-20.9c-1,3-1.6,6.3-1.6,9.7c0,8.5,3.4,16.1,9,21.7
		c1-1.1,2.3-1.7,3.9-1.7h10.4c2.9,0,5.2,2.3,5.2,5.2c0,2.2-1.4,4.2-3.4,4.9c1.8,0.3,3.6,0.5,5.5,0.5c2,0,3.9-0.2,5.7-0.5
		c-1.9-0.8-3.3-2.7-3.3-4.9c0-2.9,2.3-5.2,5.2-5.2h10.4c1.4,0,2.8,0.6,3.7,1.5c5.5-5.5,8.8-13.1,8.8-21.5
		C104,99.9,103.4,96.7,102.4,93.7z"/>
	<path class="st4" d="M73.6,69.3c-7.2,0-13.3-4.7-15.3-11.2c-0.5,1.5-0.7,3.1-0.7,4.8c0,8.8,7.2,16,16,16s16-7.2,16-16
		c0-1.7-0.3-3.3-0.7-4.8C86.9,64.6,80.8,69.3,73.6,69.3z"/>
</g>
<g>
	<path class="st0" d="M161.9,48.8h14.6v56.9h-14.6V48.8z"/>
	<path class="st0" d="M185.3,48.8h22.4c7.6,0,13.4,2,17.1,5.8c3.2,3.2,5,7.6,5,13.3v0.4c0,8.5-4.1,13.7-10.2,16.8l11.7,20.7h-16.5
		l-9.7-17.6h-5.2v17.6h-14.6V48.8z M207.1,76.4c5,0,7.9-2.8,7.9-7.4v-0.2c0-4.9-3.1-7.3-8-7.3h-7.2v14.9H207.1z"/>
	<path class="st0" d="M234.7,77.9v-1.2c0-17,11.1-29,26.4-29c15.4,0,26.4,11.8,26.4,28.9v1.2c0,17-11.1,29-26.4,29
		C245.6,106.8,234.7,95,234.7,77.9z M272.5,77.7v-0.9c0-9.8-4.7-15.9-11.5-15.9c-6.8,0-11.4,5.9-11.4,15.8v0.9
		c0,9.8,4.7,15.9,11.5,15.9C267.9,93.5,272.5,87.6,272.5,77.7z"/>
	<path class="st0" d="M294.3,48.8H308l19,28.6V48.8h14.4v56.9h-13l-19.7-29.9v29.9h-14.4V48.8z"/>
	<path class="st0" d="M350,48.8h14.6v56.9H350V48.8z"/>
	<path class="st0" d="M371.8,77.8v-1c0-17.6,11.5-29,26.4-29c8.9,0,15,3.5,19.7,8.9l-9.4,10c-2.4-2.9-5.5-5.4-10-5.4
		c-6.7,0-11.6,5.9-11.6,15.6v0.3c0,10.2,5,15.8,11.6,15.8c4.9,0,7.8-2.6,10.4-5.6l9.3,9.4c-4.6,5.7-11,9.8-20.5,9.8
		C383.1,106.7,371.8,95.5,371.8,77.8z"/>
</g>
<g>
	<path class="st0" d="M425,99.5c0-1.3,0.3-2.5,1-3.7s1.5-2,2.7-2.7s2.4-1,3.7-1c1.3,0,2.5,0.3,3.7,1s2,1.5,2.7,2.7s1,2.4,1,3.7
		c0,1.3-0.3,2.5-0.9,3.6s-1.5,2-2.7,2.7s-2.4,1-3.7,1c-1.3,0-2.6-0.3-3.7-1s-2-1.6-2.7-2.7S425,100.8,425,99.5z M426.2,99.5
		c0,1.1,0.3,2.1,0.8,3.1s1.3,1.7,2.3,2.2s2,0.8,3.1,0.8c1.1,0,2.1-0.3,3.1-0.8s1.7-1.3,2.2-2.2s0.8-2,0.8-3.1c0-1.1-0.3-2.1-0.8-3.1
		s-1.3-1.7-2.3-2.3s-2-0.8-3.1-0.8c-1.1,0-2.1,0.3-3.1,0.8s-1.7,1.3-2.3,2.2S426.2,98.4,426.2,99.5z M435.3,97.7
		c0,1.1-0.5,1.9-1.5,2.3l2.3,3.9h-2.1l-1.9-3.4h-0.9v3.4h-1.8v-8.8h2.6c1.1,0,2,0.2,2.5,0.7S435.3,96.8,435.3,97.7z M431.3,99.1h0.7
		c0.5,0,0.8-0.1,1.1-0.3s0.4-0.6,0.4-1c0-0.5-0.1-0.8-0.4-1s-0.6-0.3-1.1-0.3h-0.7V99.1z"/>
</g>
</svg>
