<svg id="Layer_1" data-name="Layer 1" xmlns="http://www.w3.org/2000/svg" viewBox="0 0 256.77 71.64"><defs><style>.cls-1{fill:#fff;}</style></defs><path class="cls-1" d="M156.5,89l5.6-11h6.12l-8.89,16.37V104.8h-5.65V94.56L144.79,78H151Z" transform="translate(-62.3 -60.09)"/><path class="cls-1" d="M186.58,94.52q0,5-2.64,7.83a9.58,9.58,0,0,1-7.35,2.82,10.29,10.29,0,0,1-5.2-1.29,8.59,8.59,0,0,1-3.47-3.71,12.6,12.6,0,0,1-1.21-5.65q0-5,2.63-7.81a9.6,9.6,0,0,1,7.36-2.79,10.3,10.3,0,0,1,5.21,1.29,8.5,8.5,0,0,1,3.46,3.68A12.32,12.32,0,0,1,186.58,94.52Zm-14.17,0a8.65,8.65,0,0,0,1,4.6,3.58,3.58,0,0,0,3.26,1.56,3.51,3.51,0,0,0,3.21-1.55,8.66,8.66,0,0,0,1-4.61,8.53,8.53,0,0,0-1-4.56,4.2,4.2,0,0,0-6.48,0A8.43,8.43,0,0,0,172.41,94.52Z" transform="translate(-62.3 -60.09)"/><path class="cls-1" d="M204.41,104.8l-.75-2.62h-.3a5.87,5.87,0,0,1-2.55,2.21,8.67,8.67,0,0,1-3.75.78,7.16,7.16,0,0,1-5.45-1.93,7.81,7.81,0,0,1-1.83-5.57V84.31h5.59v12a5.72,5.72,0,0,0,.79,3.33,2.85,2.85,0,0,0,2.51,1.1,3.79,3.79,0,0,0,3.39-1.56q1-1.58,1.05-5.2V84.31h5.59V104.8Z" transform="translate(-62.3 -60.09)"/><path class="cls-1" d="M224.5,83.92a9,9,0,0,1,1.89.17L226,89.33a6.6,6.6,0,0,0-1.65-.18,5.94,5.94,0,0,0-4.17,1.37,5,5,0,0,0-1.5,3.85V104.8h-5.59V84.31h4.24l.82,3.45h.27A7.75,7.75,0,0,1,221,85,6.38,6.38,0,0,1,224.5,83.92Z" transform="translate(-62.3 -60.09)"/><path class="cls-1" d="M238.42,104.8V78h5.69v22.11H255v4.69Z" transform="translate(-62.3 -60.09)"/><path class="cls-1" d="M277.06,94.52q0,5-2.64,7.83a9.58,9.58,0,0,1-7.35,2.82,10.29,10.29,0,0,1-5.2-1.29,8.59,8.59,0,0,1-3.47-3.71,12.6,12.6,0,0,1-1.21-5.65q0-5,2.63-7.81a9.6,9.6,0,0,1,7.36-2.79,10.3,10.3,0,0,1,5.21,1.29,8.5,8.5,0,0,1,3.46,3.68A12.32,12.32,0,0,1,277.06,94.52Zm-14.17,0a8.65,8.65,0,0,0,1,4.6,3.58,3.58,0,0,0,3.26,1.56,3.51,3.51,0,0,0,3.21-1.55,8.66,8.66,0,0,0,1-4.61,8.43,8.43,0,0,0-1-4.56,4.19,4.19,0,0,0-6.47,0A8.43,8.43,0,0,0,262.89,94.52Z" transform="translate(-62.3 -60.09)"/><path class="cls-1" d="M298.21,84.31v2.84L295,88a5.61,5.61,0,0,1,.88,3.07,6.25,6.25,0,0,1-2.3,5.15A10,10,0,0,1,287.19,98l-1-.06-.82-.09a1.86,1.86,0,0,0-.87,1.47c0,.81,1,1.21,3.08,1.21h3.49A7.91,7.91,0,0,1,296.2,102a5.16,5.16,0,0,1,1.77,4.25,6.31,6.31,0,0,1-3,5.57q-3,2-8.61,2a12,12,0,0,1-6.55-1.49,4.74,4.74,0,0,1-2.26-4.19,4.37,4.37,0,0,1,1.15-3.1,6.61,6.61,0,0,1,3.39-1.78,3.71,3.71,0,0,1-1.5-1.2,2.95,2.95,0,0,1,0-3.72,7.67,7.67,0,0,1,2-1.53A5.45,5.45,0,0,1,280,94.57a6.76,6.76,0,0,1-.94-3.62,6.38,6.38,0,0,1,2.18-5.19,9.43,9.43,0,0,1,6.23-1.84,16.53,16.53,0,0,1,2,.16c.79.1,1.3.18,1.52.23ZM282.39,107.7a2,2,0,0,0,1.11,1.81,6.05,6.05,0,0,0,3.1.66,11,11,0,0,0,4.71-.82,2.51,2.51,0,0,0,1.71-2.26,1.59,1.59,0,0,0-1-1.59,8.32,8.32,0,0,0-3.12-.44H286a4.41,4.41,0,0,0-2.58.72A2.24,2.24,0,0,0,282.39,107.7Zm2-16.68a4.16,4.16,0,0,0,.76,2.64,2.76,2.76,0,0,0,2.32,1,2.7,2.7,0,0,0,2.31-1,4.29,4.29,0,0,0,.73-2.64q0-3.7-3-3.7T284.42,91Z" transform="translate(-62.3 -60.09)"/><path class="cls-1" d="M319.08,94.52q0,5-2.64,7.83a9.58,9.58,0,0,1-7.35,2.82,10.3,10.3,0,0,1-5.21-1.29,8.57,8.57,0,0,1-3.46-3.71,12.47,12.47,0,0,1-1.21-5.65q0-5,2.62-7.81a9.6,9.6,0,0,1,7.37-2.79,10.29,10.29,0,0,1,5.2,1.29,8.58,8.58,0,0,1,3.47,3.68A12.45,12.45,0,0,1,319.08,94.52Zm-14.17,0a8.56,8.56,0,0,0,1,4.6,4.14,4.14,0,0,0,6.47,0,8.76,8.76,0,0,0,1-4.61,8.43,8.43,0,0,0-1-4.56,4.19,4.19,0,0,0-6.47,0A8.43,8.43,0,0,0,304.91,94.52Z" transform="translate(-62.3 -60.09)"/><path class="cls-1" d="M98.12,60.09a35.82,35.82,0,1,0,35.82,35.82A35.82,35.82,0,0,0,98.12,60.09ZM117.7,88.5,95.8,110.4a5,5,0,0,1-7.07,0L78.54,100.21a5,5,0,0,1,7.07-7.07l6.65,6.65,18.37-18.36a5,5,0,0,1,7.07,7.07Z" transform="translate(-62.3 -60.09)"/></svg>